# xmcd CD database file
#
# Track frame offsets:
#	150
#	18820
#	30367
#	45220
#	59248
#	76997
#	91585
#	112173
#	126017
#	143903
#	171724
#
# Disc length: 2605 seconds
#
# Revision: 0
# Processed by: cddbd v1.5.2PL0 Copyright (c) Steve Scherf et al.
# Submitted via: CDex 1.51
#
DISCID=8a0a2b0b
DTITLE=Lucky Chops - Lucky Chops
DYEAR=2019
DGENRE=Jazz
TTITLE0=Halfway To The Hudson
TTITLE1=The Dancing Babies
TTITLE2=Traveler
TTITLE3=Dance Night
TTITLE4=Full Heart Fancy
TTITLE5=Flyway
TTITLE6=Pizza Day
TTITLE7=Familiar Places
TTITLE8=Memories
TTITLE9=It's Not Goodbye
TTITLE10=Mo' Momo!
EXTD=YEAR: 2019
EXTT0=
EXTT1=
EXTT2=
EXTT3=
EXTT4=
EXTT5=
EXTT6=
EXTT7=
EXTT8=
EXTT9=
EXTT10=
PLAYORDER=
